<svg id="Capa_1" enable-background="new 0 0 512 512" height="512" viewBox="0 0 512 512" width="512" xmlns="http://www.w3.org/2000/svg"><g><path d="m426.933 0h-342.926c-27.905 0-50.527 22.622-50.527 50.528v231.071h443.98v-231.071c0-27.906-22.622-50.528-50.527-50.528z" fill="#dddaec"/><path d="m426.933 54.28h-342.926c-27.906 0-50.528 22.622-50.528 50.528v231.071h443.98v-231.071c.001-27.906-22.621-50.528-50.526-50.528z" fill="#f9f6f9"/><path d="m512 266.595v172.866c0 40.062-32.477 72.539-72.539 72.539h-366.922c-40.062 0-72.539-32.477-72.539-72.539v-245.406c0-51.086 41.414-92.5 92.5-92.5h69.877c51.086 0 92.5 41.414 92.5 92.5h184.584c40.062 0 72.539 32.477 72.539 72.54z" fill="#ffe07d"/><path d="m144.71 512h-72.165c-40.063 0-72.545-32.482-72.545-72.535v-245.41c0-51.087 41.413-92.5 92.5-92.5h69.877c.381 0 .762 0 1.143.01-50.561.608-91.356 41.784-91.356 92.49v245.41c0 40.053 32.482 72.535 72.546 72.535z" fill="#ffd064"/></g></svg>